# Created by FreeCAD <http://www.freecadweb.org>
v 3.567289 2.491206 0.000000
v 2.113290 12.851742 10.000000
v 3.567289 2.491206 10.000000
v 2.113290 12.851742 0.000000
v -7.586197 16.772810 10.000000
v -7.586197 16.772810 0.000000
v -15.831685 10.333342 10.000000
v -15.831685 10.333342 0.000000
v -14.377686 -0.027194 10.000000
v -14.377686 -0.027194 0.000000
v -4.678199 -3.948262 0.000000
v -4.678199 -3.948262 10.000000
vn 0.990295 0.138978 -0.000000
vn 0.990295 0.138978 0.000000
vn 0.374789 0.927110 -0.000000
vn 0.374789 0.927110 0.000000
vn -0.615506 0.788132 0.000000
vn -0.615506 0.788132 0.000000
vn -0.990295 -0.138978 0.000000
vn -0.990295 -0.138978 0.000000
vn -0.374789 -0.927110 0.000000
vn -0.374789 -0.927110 0.000000
vn 0.615506 -0.788132 0.000000
vn 0.615506 -0.788132 0.000000
vn 0.000000 0.000000 -1.000000
vn 0.000000 -0.000000 -1.000000
vn 0.000000 0.000000 -1.000000
vn 0.000000 0.000000 -1.000000
vn 0.000000 0.000000 1.000000
vn 0.000000 0.000000 1.000000
vn 0.000000 0.000000 1.000000
vn 0.000000 0.000000 1.000000
f 1//1 2//1 3//1
f 1//2 4//2 2//2
f 4//3 5//3 2//3
f 4//4 6//4 5//4
f 6//5 7//5 5//5
f 6//6 8//6 7//6
f 8//7 9//7 7//7
f 8//8 10//8 9//8
f 10//9 11//9 9//9
f 9//10 11//10 12//10
f 11//11 1//11 12//11
f 12//12 1//12 3//12
f 10//13 1//13 11//13
f 6//14 4//14 8//14
f 8//15 4//15 10//15
f 10//16 4//16 1//16
f 3//17 9//17 12//17
f 2//18 5//18 7//18
f 2//19 7//19 9//19
f 2//20 9//20 3//20
