# Created by FreeCAD <http://www.freecadweb.org>
v 28.781485 -35.547951 30.000000
v 20.192535 75.091049 0.000000
v 20.192535 75.091049 30.000000
v 28.781485 -35.547951 0.000000
v -72.335777 12.814740 0.000000
v 19.430731 75.075905 0.000000
v 20.019421 76.144020 0.000000
v 19.430731 75.075905 30.000000
v 19.430731 75.075905 50.000000
v 127.790939 77.229813 50.000000
v 127.790939 77.229813 0.000000
v -72.335777 12.814740 30.000000
v 20.019421 76.144020 30.000000
v 20.106174 76.203506 0.000000
v 71.745499 169.995560 0.000000
v 71.745499 169.995560 50.000000
vn 0.997000 0.077398 0.000000
vn 0.997000 0.077398 -0.000000
vn 0.000000 0.000000 -1.000000
vn 0.000000 0.000000 -1.000000
vn 0.000000 0.000000 -1.000000
vn 0.019876 -0.999802 0.000000
vn 0.019873 -0.999803 -0.000000
vn 0.019873 -0.999802 0.000000
vn 0.019873 -0.999803 0.000000
vn 0.000000 0.000000 1.000000
vn 0.000000 0.000000 1.000000
vn 0.000000 0.000000 1.000000
vn -0.431472 -0.902126 0.000000
vn -0.431472 -0.902126 0.000000
vn -0.565528 0.824729 0.000000
vn -0.565528 0.824729 0.000000
vn 0.000000 0.000000 -1.000000
vn 0.000000 0.000000 -1.000000
vn 0.000000 0.000000 -1.000000
vn 0.000000 0.000000 -1.000000
vn 0.000000 0.000000 -1.000000
vn 0.855918 0.517112 -0.000000
vn 0.855918 0.517112 0.000000
vn 0.000000 0.000000 1.000000
vn -0.875791 0.482690 0.000000
vn -0.875791 0.482690 0.000000
vn -0.875791 0.482691 0.000000
vn -0.875791 0.482690 0.000000
f 1//1 2//1 3//1
f 4//2 2//2 1//2
f 5//3 6//3 4//3
f 6//4 2//4 4//4
f 5//5 7//5 6//5
f 8//6 3//6 9//6
f 3//7 10//7 9//7
f 2//8 11//8 3//8
f 3//9 11//9 10//9
f 8//10 12//10 1//10
f 3//11 8//11 1//11
f 13//12 12//12 8//12
f 5//13 4//13 12//13
f 12//14 4//14 1//14
f 7//15 12//15 13//15
f 7//16 5//16 12//16
f 6//17 7//17 2//17
f 7//18 14//18 2//18
f 14//19 11//19 2//19
f 7//20 15//20 14//20
f 14//21 15//21 11//21
f 11//22 15//22 10//22
f 10//23 15//23 16//23
f 16//24 9//24 10//24
f 16//25 13//25 9//25
f 15//26 13//26 16//26
f 13//27 8//27 9//27
f 15//28 7//28 13//28
