# Created by FreeCAD <http://www.freecadweb.org>
v -0.000000 96.589417 68.091644
v -0.000000 60.198185 55.484093
v 50.000000 96.589417 68.091644
v 50.000000 60.198185 55.484093
v 0.000000 61.147327 19.956755
v 50.000000 61.147327 19.956755
v 0.000000 93.610046 -17.056927
v 50.000000 93.610046 -17.056927
v 50.000000 70.600800 36.323219
v -0.000000 70.600800 36.323219
v -0.000000 61.147327 19.956755
v -0.000000 70.600800 36.323219
v 0.000000 93.610046 -17.056927
v -0.000000 60.198185 55.484093
v -0.000000 96.589417 68.091644
v 50.000000 70.600800 36.323219
v 50.000000 61.147327 19.956755
v 50.000000 93.610046 -17.056927
v 50.000000 60.198185 55.484093
v 50.000000 96.589417 68.091644
v 41.629971 -0.000000 -7.190622
v 41.631733 0.000000 46.050983
v 41.629971 -1.000000 -7.190622
v 41.631733 -1.000000 46.050983
v -48.425327 0.000000 112.210747
v -48.425327 -1.000000 112.210747
v -92.348129 -1.000000 77.783501
v -92.348129 0.000000 77.783501
v -35.743019 0.000000 5.509568
v -35.743019 -1.000000 5.509568
v 41.629971 -1.000000 -7.190622
v 27.262196 37.377079 0.000000
v 13.681965 18.247938 0.000000
v 13.681965 18.247938 100.000000
v 27.262196 37.377079 100.000000
v 58.949402 15.473484 100.000000
v 58.949402 15.473484 0.000000
v -31.972189 23.946270 0.000000
v -2.708897 1.900380 0.000000
v -31.972189 23.946270 100.000000
v -2.708897 1.900380 100.000000
v -28.888393 29.457745 0.000000
v -28.888393 29.457745 100.000000
v -31.972189 23.946270 0.000000
v -2.708897 1.900380 0.000000
v -31.972189 23.946270 100.000000
v -2.708897 1.900380 100.000000
v -28.888393 29.457745 0.000000
v -28.888393 29.457745 100.000000
vn 0.000000 -0.327356 0.944901
vn 0.000000 -0.327356 0.944901
vn 0.000000 -0.999643 -0.026706
vn 0.000000 -0.999643 -0.026706
vn 0.000000 -0.751814 -0.659376
vn 0.000000 -0.751814 -0.659376
vn -0.000000 0.918321 0.395838
vn 0.000000 0.918321 0.395838
vn 0.000000 0.774002 -0.633183
vn 0.000000 0.774002 -0.633183
vn -1.000000 -0.000000 -0.000000
vn -1.000000 0.000000 -0.000000
vn -1.000000 -0.000000 -0.000000
vn 1.000000 0.000000 0.000000
vn 1.000000 -0.000000 0.000000
vn 1.000000 0.000000 0.000000
vn 1.000000 0.000000 -0.000033
vn 1.000000 0.000000 -0.000033
vn 0.592050 0.000000 0.805902
vn 0.592050 0.000000 0.805902
vn -0.616896 0.000000 0.787045
vn -0.616896 0.000000 0.787045
vn -0.787278 -0.000000 -0.616598
vn -0.787278 0.000000 -0.616598
vn -0.161975 -0.000000 -0.986795
vn -0.161975 0.000000 -0.986795
vn -0.000000 1.000000 -0.000000
vn 0.000000 1.000000 -0.000000
vn 0.000000 1.000000 -0.000000
vn 0.000000 -1.000000 0.000000
vn -0.000000 -1.000000 0.000000
vn 0.000000 -1.000000 0.000000
vn -0.815412 0.578881 0.000000
vn -0.815412 0.578881 0.000000
vn 0.568618 0.822601 -0.000000
vn 0.568618 0.822601 -0.000000
vn -0.061175 -0.998127 0.000000
vn -0.061175 -0.998127 0.000000
vn 0.000000 -0.000000 -1.000000
vn 0.000000 0.000000 1.000000
vn -0.601718 -0.798709 0.000000
vn -0.601718 -0.798709 0.000000
vn 0.724999 0.688749 -0.000000
vn 0.724999 0.688749 0.000000
vn -0.872684 0.488286 0.000000
vn -0.872684 0.488286 0.000000
vn 0.000000 0.000000 -1.000000
vn 0.000000 0.000000 1.000000
vn -0.601718 -0.798709 0.000000
vn -0.601718 -0.798709 0.000000
vn 0.724999 0.688749 -0.000000
vn 0.724999 0.688749 0.000000
vn -0.872684 0.488286 0.000000
vn -0.872684 0.488286 0.000000
vn 0.000000 0.000000 -1.000000
vn 0.000000 0.000000 1.000000
g Body003
f 1//1 2//1 3//1
f 3//2 2//2 4//2
f 2//3 5//3 4//3
f 4//4 5//4 6//4
f 5//5 7//5 6//5
f 6//6 7//6 8//6
f 7//7 9//7 8//7
f 7//8 10//8 9//8
f 9//9 10//9 3//9
f 10//10 1//10 3//10
f 11//11 12//11 13//11
f 12//12 14//12 15//12
f 11//13 14//13 12//13
f 16//14 17//14 18//14
f 19//15 16//15 20//15
f 19//16 17//16 16//16
g Body002
f 21//17 22//17 23//17
f 23//18 22//18 24//18
f 22//19 25//19 24//19
f 24//20 25//20 26//20
f 25//21 27//21 26//21
f 25//22 28//22 27//22
f 28//23 29//23 27//23
f 27//24 29//24 30//24
f 29//25 23//25 30//25
f 29//26 21//26 23//26
f 25//27 29//27 28//27
f 25//28 22//28 29//28
f 22//29 21//29 29//29
f 30//30 26//30 27//30
f 24//31 26//31 30//31
f 31//32 24//32 30//32
g Body001
f 32//33 33//33 34//33
f 32//34 34//34 35//34
f 32//35 35//35 36//35
f 37//36 32//36 36//36
f 33//37 37//37 36//37
f 33//38 36//38 34//38
f 32//39 37//39 33//39
f 36//40 35//40 34//40
g Body
f 38//41 39//41 40//41
f 40//42 39//42 41//42
f 39//43 42//43 41//43
f 41//44 42//44 43//44
f 42//45 38//45 43//45
f 43//46 38//46 40//46
f 38//47 42//47 39//47
f 43//48 40//48 41//48
g Pad
f 44//49 45//49 46//49
f 46//50 45//50 47//50
f 45//51 48//51 47//51
f 47//52 48//52 49//52
f 48//53 44//53 49//53
f 49//54 44//54 46//54
f 44//55 48//55 45//55
f 49//56 46//56 47//56
