# Created by FreeCAD <http://www.freecadweb.org>
v -31.972189 23.946270 0.000000
v -2.708897 1.900380 0.000000
v -31.972189 23.946270 100.000000
v -2.708897 1.900380 100.000000
v -28.888393 29.457745 0.000000
v -28.888393 29.457745 100.000000
v 27.262196 37.377079 0.000000
v 13.681965 18.247938 0.000000
v 13.681965 18.247938 100.000000
v 27.262196 37.377079 100.000000
v 58.949402 15.473484 100.000000
v 58.949402 15.473484 0.000000
v -31.972189 23.946270 0.000000
v -2.708897 1.900380 0.000000
v -31.972189 23.946270 100.000000
v -2.708897 1.900380 100.000000
v -28.888393 29.457745 0.000000
v -28.888393 29.457745 100.000000
vn -0.601718 -0.798709 0.000000
vn -0.601718 -0.798709 0.000000
vn 0.724999 0.688749 -0.000000
vn 0.724999 0.688749 0.000000
vn -0.872684 0.488286 0.000000
vn -0.872684 0.488286 0.000000
vn 0.000000 0.000000 -1.000000
vn 0.000000 0.000000 1.000000
vn -0.815412 0.578881 0.000000
vn -0.815412 0.578881 0.000000
vn 0.568618 0.822601 -0.000000
vn 0.568618 0.822601 -0.000000
vn -0.061175 -0.998127 0.000000
vn -0.061175 -0.998127 0.000000
vn 0.000000 -0.000000 -1.000000
vn 0.000000 0.000000 1.000000
vn -0.601718 -0.798709 0.000000
vn -0.601718 -0.798709 0.000000
vn 0.724999 0.688749 -0.000000
vn 0.724999 0.688749 0.000000
vn -0.872684 0.488286 0.000000
vn -0.872684 0.488286 0.000000
vn 0.000000 0.000000 -1.000000
vn 0.000000 0.000000 1.000000
g Body
f 1//1 2//1 3//1
f 3//2 2//2 4//2
f 2//3 5//3 4//3
f 4//4 5//4 6//4
f 5//5 1//5 6//5
f 6//6 1//6 3//6
f 1//7 5//7 2//7
f 6//8 3//8 4//8
g Body001
f 7//9 8//9 9//9
f 7//10 9//10 10//10
f 7//11 10//11 11//11
f 12//12 7//12 11//12
f 8//13 12//13 11//13
f 8//14 11//14 9//14
f 7//15 12//15 8//15
f 11//16 10//16 9//16
g Pad
f 13//17 14//17 15//17
f 15//18 14//18 16//18
f 14//19 17//19 16//19
f 16//20 17//20 18//20
f 17//21 13//21 18//21
f 18//22 13//22 15//22
f 13//23 17//23 14//23
f 18//24 15//24 16//24
